<svg width="40" height="40" viewBox="0 0 40 40" fill="none" xmlns="http://www.w3.org/2000/svg">
<path d="M0 9.81942C0 4.3963 4.39631 0 9.81943 0H30.1806C35.6037 0 40 4.39631 40 9.81943V30.1806C40 35.6037 35.6037 40 30.1806 40H9.81942C4.3963 40 0 35.6037 0 30.1806V9.81942Z" fill="black"/>
<path d="M14.8156 35.3735C17.6365 35.3735 19.9259 33.0841 19.9259 30.2632V25.1528H14.8156C11.9946 25.1528 9.7052 27.4422 9.7052 30.2632C9.7052 33.0841 11.9946 35.3735 14.8156 35.3735Z" fill="#0ACF83"/>
<path d="M9.7052 20.0425C9.7052 17.2215 11.9946 14.9321 14.8156 14.9321H19.9259V25.1528H14.8156C11.9946 25.1528 9.7052 22.8634 9.7052 20.0425Z" fill="#A259FF"/>
<path d="M9.70593 9.82326C9.70593 7.00228 11.9953 4.71289 14.8163 4.71289H19.9266V14.9335H14.8163C11.9953 14.9335 9.70593 12.6442 9.70593 9.82326Z" fill="#F24E1E"/>
<path d="M19.926 4.71143H25.0364C27.8573 4.71143 30.1467 7.00082 30.1467 9.8218C30.1467 12.6427 27.8573 14.9321 25.0364 14.9321H19.926V4.71143Z" fill="#FF7262"/>
<path d="M30.1467 20.0425C30.1467 22.8634 27.8573 25.1528 25.0364 25.1528C22.2154 25.1528 19.926 22.8634 19.926 20.0425C19.926 17.2215 22.2154 14.9321 25.0364 14.9321C27.8573 14.9321 30.1467 17.2215 30.1467 20.0425Z" fill="#1ABCFE"/>
</svg>
