<svg width="40" height="40" viewBox="0 0 40 40" fill="none" xmlns="http://www.w3.org/2000/svg">
<g clip-path="url(#clip0_46_149)">
<rect width="40" height="40" rx="8" fill="#3F3D56"/>
<path d="M5.82749 36.4631C5.88376 37.6447 7.07784 37.0883 7.59673 36.7257C8.11562 36.3631 8.2219 36.6694 8.29692 35.9755C8.34302 35.5227 8.36181 35.0676 8.35319 34.6126C7.56534 34.532 6.77446 34.7336 6.12132 35.1815C5.79623 35.4191 5.18982 36.1693 5.82124 36.4318" fill="#F6D2A2"/>
<path d="M5.81812 36.4296C5.99681 36.39 6.15989 36.2987 6.28699 36.167L5.81812 36.4296Z" fill="#C7B199"/>
<path d="M8.43212 22.403C3.91212 21.1527 7.27555 15.3823 10.9328 17.7455L8.43212 22.403Z" fill="#74CDDD"/>
<path d="M28.5127 17.3143C32.0887 14.8137 35.3208 20.4402 31.1634 21.8969L28.5127 17.3143Z" fill="#74CDDD"/>
<path d="M34.3268 36.3132C34.2705 37.4948 33.0765 36.9384 32.5576 36.5758C32.0387 36.2132 31.9324 36.5195 31.8574 35.8256C31.8113 35.3728 31.7925 34.9177 31.8011 34.4627C32.5889 34.3821 33.3798 34.5837 34.033 35.0316C34.358 35.2691 34.9645 36.0194 34.333 36.2819" fill="#F6D2A2"/>
<path d="M34.3268 36.3132C34.1502 36.2789 33.9874 36.1942 33.8579 36.0693L34.3268 36.3132Z" fill="#C7B199"/>
<path d="M19.5665 14.9263C24.0927 14.9263 28.3189 15.5514 30.5445 19.9276C32.5263 24.7977 31.7948 30.0554 32.1262 35.2006C32.3888 39.6206 32.9639 44.7282 30.9133 48.8294C28.769 53.1306 23.355 54.1996 18.9163 54.0558C15.4278 53.9308 11.2142 52.8055 9.24487 49.6046C6.93173 45.8535 8.02578 40.302 8.19458 36.1446C8.39463 31.2183 6.85671 26.2731 8.47591 21.4468C10.1576 16.4454 14.6839 15.3139 19.5602 14.9263" fill="#74CDDD"/>
<path d="M20.3604 20.9965C21.1731 25.7165 28.8878 24.4724 27.7812 19.7086C26.7872 15.4387 20.0916 16.6203 20.3604 20.9965Z" fill="white"/>
<path d="M11.1391 21.7655C12.1894 25.8729 18.7662 24.8163 18.5224 20.6964C18.2285 15.7576 10.1325 16.6891 11.1391 21.7655Z" fill="white"/>
<path d="M21.2669 26.6921C21.327 27.343 21.327 27.998 21.2669 28.6489C21.0838 28.8806 20.8247 29.0401 20.5354 29.099C20.3575 29.0717 20.1893 29.0001 20.0462 28.8909C19.9031 28.7817 19.7897 28.6383 19.7164 28.4739C19.6763 27.7358 19.6951 26.9958 19.7727 26.2607L21.2669 26.6921Z" fill="white"/>
<path d="M12.9522 22.297C13.5667 22.297 14.065 21.7567 14.065 21.0904C14.065 20.424 13.5667 19.8838 12.9522 19.8838C12.3376 19.8838 11.8394 20.424 11.8394 21.0904C11.8394 21.7567 12.3376 22.297 12.9522 22.297Z" fill="#3E373A"/>
<path d="M13.4585 21.6717C13.6035 21.6717 13.7211 21.5346 13.7211 21.3654C13.7211 21.1962 13.6035 21.0591 13.4585 21.0591C13.3135 21.0591 13.1959 21.1962 13.1959 21.3654C13.1959 21.5346 13.3135 21.6717 13.4585 21.6717Z" fill="white"/>
<path d="M22.2671 21.9967C22.8714 21.9967 23.3612 21.4565 23.3612 20.7901C23.3612 20.1237 22.8714 19.5835 22.2671 19.5835C21.6629 19.5835 21.1731 20.1237 21.1731 20.7901C21.1731 21.4565 21.6629 21.9967 22.2671 21.9967Z" fill="#3E373A"/>
<path d="M22.7611 21.3715C22.9026 21.3715 23.0174 21.2343 23.0174 21.0651C23.0174 20.8959 22.9026 20.7588 22.7611 20.7588C22.6195 20.7588 22.5048 20.8959 22.5048 21.0651C22.5048 21.2343 22.6195 21.3715 22.7611 21.3715Z" fill="white"/>
<path d="M18.141 26.5981C17.6534 27.7734 18.4098 30.124 19.729 28.3923C19.6888 27.6543 19.7076 26.9142 19.7852 26.1792L18.141 26.5981Z" fill="white"/>
<path d="M18.2848 24.3349C18.0593 24.3564 17.8422 24.431 17.6512 24.5527C17.4602 24.6744 17.3008 24.8396 17.186 25.0349C17.0713 25.2302 17.0046 25.4499 16.9912 25.676C16.9779 25.9021 17.0185 26.1281 17.1095 26.3355C17.7346 27.4608 19.1225 26.2354 19.9853 26.3355C20.9793 26.3355 21.7983 27.3857 22.5985 26.523C23.4862 25.5602 22.2171 24.6475 21.2231 24.2036L18.2848 24.3349Z" fill="#F6D2A2"/>
<path d="M18.1411 24.2914C18.0723 22.7284 21.0606 22.5284 21.4107 23.8412C21.7608 25.1541 18.2849 25.4542 18.1411 24.2914Z" fill="#3E373A"/>
<g clip-path="url(#clip1_46_149)">
<path d="M21.4062 5.33282C21.4453 5.41196 21.3671 5.41196 21.3281 5.41196L20 5.76809C19.8828 5.84723 19.8046 5.72852 19.8046 5.72852C18.9843 4.6997 17.2656 5.41196 17.1875 6.91561C17.1093 8.34012 18.9453 8.8941 19.8046 7.46959H18.3203C18.2031 7.46959 18.0078 7.43002 18.2031 7.07389L18.5156 6.4012C18.5937 6.24292 18.6328 6.24292 18.8671 6.24292H21.6015C21.6015 9.44808 18.0859 10.8726 16.2109 8.93367C15.3515 8.02357 15.0781 5.96594 16.8359 4.50185C18.2421 3.35433 20.5859 3.35433 21.4062 5.33282ZM22.0312 9.13152C20.2734 7.5883 21.2109 4.38314 23.9843 3.86874C26.8359 3.35433 28.0859 6.04507 26.9531 8.06314C26.0156 9.76464 23.5156 10.4769 22.0312 9.13152ZM25.7031 7.11346C26.0546 6.12421 25.3515 5.17454 24.2968 5.25368C23.125 5.37239 22.3046 6.91561 23.0468 7.82572C23.789 8.69625 25.3125 8.30055 25.7031 7.11346ZM13.164 7.03432V6.99475L13.2421 6.7969L13.3203 6.75733H14.9218L14.9609 6.7969L14.9218 6.99475L14.8828 7.03432H13.164ZM11.289 6.32206C11.289 6.32206 11.2109 6.32206 11.25 6.28249L11.4062 6.04507L11.4843 6.00551H15.0781L15.1171 6.04507L15.039 6.24292L15 6.28249L11.289 6.32206ZM12.4609 5.57024L12.4218 5.53067L12.6171 5.33282L12.6953 5.29325H15.5078V5.33282L15.3906 5.53067L15.3125 5.57024H12.4609Z" fill="#74CDDD"/>
</g>
</g>
<defs>
<clipPath id="clip0_46_149">
<rect width="40" height="40" rx="8" fill="white"/>
</clipPath>
<clipPath id="clip1_46_149">
<rect width="17.5" height="6.09375" fill="white" transform="translate(11.25 3.75)"/>
</clipPath>
</defs>
</svg>
