<svg width="40" height="40" viewBox="0 0 40 40" fill="none" xmlns="http://www.w3.org/2000/svg">
  <path d="M0 0H40V40H0V0Z" fill="#222222" />
  <path
    d="M19.9691 23.3207C21.8164 23.3207 23.314 21.8232 23.314 19.9758C23.314 18.1284 21.8164 16.6309 19.9691 16.6309C18.1217 16.6309 16.6241 18.1284 16.6241 19.9758C16.6241 21.8232 18.1217 23.3207 19.9691 23.3207Z"
    fill="#00D8FF" />
  <path fill-rule="evenodd" clip-rule="evenodd"
    d="M19.9691 13.9755C15.5017 13.9755 11.3197 14.6259 8.26642 15.6896C8.26639 15.6896 8.26636 15.6897 8.26633 15.6897C6.46144 16.3187 5.06763 17.0923 4.14135 17.8846C3.19702 18.6924 2.84172 19.4249 2.84172 19.9748C2.84172 20.5478 3.22869 21.3353 4.23965 22.201C5.22801 23.0473 6.70787 23.8722 8.60784 24.5215C11.6046 25.5456 15.6452 26.0415 19.9691 26.0415C24.176 26.0415 28.1344 25.5144 31.1053 24.5302L31.1054 24.5301C33.076 23.8775 34.6147 23.056 35.6435 22.209C36.6963 21.3422 37.0953 20.5545 37.0953 19.9748C37.0953 19.4287 36.7265 18.69 35.7441 17.8704C34.7838 17.0691 33.3485 16.2896 31.5155 15.6586C31.5155 15.6586 31.5155 15.6586 31.5155 15.6586C28.4722 14.6114 24.3916 13.9755 19.9691 13.9755ZM7.73993 14.1787C11.0007 13.0427 15.3679 12.3755 19.9691 12.3755C24.5268 12.3755 28.7898 13.0285 32.0362 14.1457L32.0362 14.1457C33.9925 14.8191 35.617 15.6805 36.7691 16.6418C37.8991 17.5847 38.6954 18.7302 38.6954 19.9748C38.6954 21.2611 37.8597 22.4569 36.6605 23.4442C35.4373 24.4512 33.7068 25.3541 31.6085 26.049C28.4267 27.1031 24.287 27.6416 19.9691 27.6416C15.5515 27.6416 11.317 27.1382 8.09041 26.0355L8.0904 26.0355C6.05404 25.3396 4.38019 24.4278 3.19894 23.4163C2.04027 22.4241 1.2417 21.2323 1.2417 19.9748C1.2417 18.7484 1.99898 17.6116 3.1013 16.6687C4.22165 15.7104 5.80852 14.8518 7.73984 14.1787L7.73993 14.1787Z"
    fill="#00D8FF" />
  <path fill-rule="evenodd" clip-rule="evenodd"
    d="M25.9987 5.27597C24.8248 5.7075 23.4323 6.5613 21.9699 7.83391L21.9698 7.83396C19.5417 9.94659 16.9517 13.1637 14.7427 16.995L14.0496 16.5954L14.7426 16.9952C12.5099 20.8647 10.9838 24.8115 10.3809 27.9908L9.59541 27.8418L10.3808 27.9908C10.0247 29.8689 9.99874 31.4629 10.2225 32.6611C10.4506 33.8826 10.9076 34.5563 11.384 34.8312C11.8801 35.1173 12.7556 35.1755 14.0108 34.7323C15.2379 34.299 16.6918 33.4291 18.2033 32.1076C20.5869 30.0231 23.0357 26.7702 25.1954 23.0249L25.1954 23.0248C27.2978 19.3798 28.8182 15.6884 29.4502 12.6224C29.8694 10.5886 29.9264 8.84492 29.7066 7.53037C29.4816 6.18517 28.9986 5.44607 28.4966 5.15665L28.8962 4.4636L28.4966 5.15665C28.0237 4.88396 27.1996 4.83448 25.9987 5.27597ZM13.3566 16.1958C15.6332 12.2472 18.3293 8.88056 20.9196 6.62686C22.4805 5.26863 24.0383 4.29193 25.4466 3.7742C26.8279 3.26643 28.2179 3.14897 29.2959 3.77055C30.41 4.41297 31.0285 5.73434 31.2847 7.26649C31.546 8.8293 31.4636 10.7799 31.0173 12.9454L31.0173 12.9454C30.3405 16.2289 28.7393 20.083 26.5814 23.8242C24.3748 27.6508 21.8228 31.0679 19.2565 33.3121L19.2565 33.3121C17.6363 34.7287 16.0101 35.7231 14.5436 36.241C13.1052 36.7489 11.6737 36.8453 10.5847 36.2172L10.5846 36.2172C9.52231 35.6044 8.91594 34.3807 8.64967 32.9548C8.37905 31.5057 8.42774 29.7021 8.80885 27.6926C9.4528 24.297 11.0571 20.1811 13.3566 16.1958Z"
    fill="#00D8FF" />
  <path fill-rule="evenodd" clip-rule="evenodd"
    d="M14.0206 5.3402C12.7431 4.86337 11.8615 4.91275 11.3598 5.20329L11.3595 5.20347C10.8871 5.47672 10.4327 6.16572 10.2155 7.42672C10.0032 8.65925 10.0476 10.2921 10.4197 12.1946C10.4197 12.1946 10.4197 12.1946 10.4197 12.1947C11.0381 15.3535 12.5319 19.2033 14.7475 23.0314C16.9856 26.8976 19.6433 30.1907 22.0936 32.3C22.0936 32.3001 22.0937 32.3001 22.0938 32.3002C23.543 33.547 24.9109 34.3655 26.0606 34.7699C27.2327 35.1823 28.0447 35.1227 28.5209 34.8471L28.521 34.8471C29.0167 34.5603 29.5044 33.8311 29.7473 32.5224C29.9847 31.243 29.9573 29.5489 29.5673 27.5791L29.5672 27.5789C28.953 24.4738 27.3569 20.7283 25.1905 16.9861L25.1905 16.986C23.0826 13.3441 20.6447 10.1832 18.3037 8.10486L18.3037 8.10482C16.7511 6.72623 15.2691 5.8062 14.0206 5.3402ZM29.3222 36.232C30.4106 35.6024 31.0421 34.3142 31.3204 32.8144C31.6042 31.2853 31.5548 29.3797 31.1368 27.2685C31.1368 27.2684 31.1368 27.2684 31.1368 27.2683C30.4754 23.9246 28.7884 20.0075 26.5753 16.1845C24.4119 12.4467 21.8733 9.13439 19.366 6.90838C17.713 5.44057 16.0644 4.39521 14.5801 3.84119C13.125 3.29807 11.6715 3.17405 10.5583 3.81847C10.5582 3.81853 10.5581 3.81859 10.558 3.81865C9.4808 4.44194 8.88847 5.70498 8.63868 7.15511C8.38396 8.63383 8.45229 10.4714 8.84949 12.5018L8.8495 12.5019C9.50905 15.8716 11.0794 19.8878 13.3627 23.8329L14.0551 23.4321L13.3627 23.8329C15.6678 27.8149 18.4331 31.2602 21.0499 33.5128L21.05 33.5129L21.0501 33.5129C22.6008 34.8471 24.139 35.7901 25.5297 36.2793C26.898 36.7607 28.2609 36.8462 29.3222 36.232ZM31.1368 27.2683C31.1368 27.2684 31.1368 27.2684 31.1368 27.2685L30.352 27.4237L31.1368 27.2683ZM29.3222 36.232L28.9216 35.5395L29.3224 36.232C29.3223 36.232 29.3223 36.232 29.3222 36.232Z"
    fill="#00D8FF" />
</svg>