<svg width="40" height="40" viewBox="0 0 40 40" fill="none" xmlns="http://www.w3.org/2000/svg">
<rect width="40" height="40" rx="4" fill="#F8529A"/>
<path d="M30.6068 21.6376C29.582 21.6429 28.6913 21.888 27.9455 22.2503C27.6719 21.7122 27.3983 21.2327 27.35 20.881C27.2963 20.4708 27.2319 20.2204 27.2963 19.7302C27.3607 19.2401 27.6504 18.5421 27.6451 18.4888C27.6397 18.4356 27.5807 18.1852 26.9905 18.1798C26.4003 18.1745 25.8906 18.2917 25.8315 18.4462C25.7725 18.6007 25.6598 18.9524 25.5847 19.3146C25.4828 19.8474 24.4043 21.7495 23.7873 22.7458C23.5888 22.3568 23.4171 22.0159 23.3795 21.7441C23.3259 21.3339 23.2615 21.0835 23.3259 20.5933C23.3903 20.1032 23.68 19.4052 23.6746 19.3519C23.6693 19.2987 23.6102 19.0483 23.02 19.0429C22.4298 19.0376 21.9201 19.1548 21.8611 19.3093C21.8021 19.4638 21.7377 19.8261 21.6143 20.1778C21.4909 20.5294 20.0583 23.7048 19.6827 24.5253C19.4896 24.9462 19.3232 25.2818 19.2052 25.5109C19.2052 25.5109 19.1998 25.5269 19.1837 25.5535C19.0818 25.7507 19.0228 25.8572 19.0228 25.8572C19.0228 25.8572 19.0228 25.8572 19.0228 25.8626C18.9423 26.0064 18.8564 26.1396 18.8135 26.1396C18.7813 26.1396 18.7223 25.756 18.8243 25.2339C19.0389 24.131 19.5486 22.4154 19.5432 22.3568C19.5432 22.3249 19.6398 22.0265 19.2106 21.872C18.7921 21.7175 18.6418 21.9732 18.6043 21.9732C18.5667 21.9732 18.5399 22.0638 18.5399 22.0638C18.5399 22.0638 19.0067 20.1351 17.6492 20.1351C16.8015 20.1351 15.6318 21.0568 15.0523 21.888C14.6875 22.0851 13.9095 22.506 13.0778 22.9589C12.7613 23.1347 12.434 23.3105 12.1282 23.4757C12.1067 23.4544 12.0852 23.4277 12.0638 23.4064C10.4219 21.6642 7.3851 20.4335 7.51387 18.0946C7.56216 17.2421 7.85726 15.0044 13.3461 12.2872C17.8638 10.0762 21.4587 10.6889 22.0811 12.0475C22.9718 13.9868 20.1549 17.5884 15.4869 18.1106C13.7056 18.3077 12.772 17.6257 12.5359 17.37C12.2891 17.1036 12.2516 17.0876 12.1604 17.1409C12.0101 17.2208 12.1067 17.4606 12.1604 17.5991C12.2999 17.9614 12.874 18.6007 13.8451 18.9151C14.7036 19.1921 16.7907 19.3466 19.3179 18.377C22.1455 17.2901 24.356 14.2692 23.7068 11.7385C23.0576 9.17046 18.7652 8.32334 14.7036 9.75652C12.2891 10.609 9.67078 11.9516 7.7875 13.6991C5.55011 15.777 5.19599 17.5831 5.34086 18.3397C5.86131 21.0249 9.5903 22.7724 11.0819 24.0671C11.0068 24.1097 10.937 24.147 10.878 24.179C10.1322 24.5466 7.28852 26.0224 6.58028 27.5834C5.77546 29.3523 6.70905 30.6203 7.32608 30.7908C9.24154 31.3182 11.2107 30.3699 12.2677 28.8035C13.3247 27.2371 13.1959 25.2019 12.7076 24.2695C12.7023 24.2589 12.6969 24.2482 12.6862 24.2376C12.8793 24.1257 13.0778 24.0085 13.271 23.8966C13.652 23.6728 14.0275 23.465 14.3495 23.2945C14.167 23.79 14.0329 24.3814 13.9685 25.2339C13.888 26.2355 14.3012 27.5355 14.8431 28.047C15.0845 28.2707 15.3689 28.2761 15.5513 28.2761C16.1844 28.2761 16.4688 27.7539 16.7854 27.1359C17.1717 26.3794 17.5204 25.5003 17.5204 25.5003C17.5204 25.5003 17.0858 27.8765 18.2662 27.8765C18.6955 27.8765 19.1301 27.3224 19.3232 27.04C19.3232 27.0453 19.3232 27.0453 19.3232 27.0453C19.3232 27.0453 19.334 27.0293 19.3554 26.9921C19.3984 26.9228 19.4252 26.8802 19.4252 26.8802C19.4252 26.8802 19.4252 26.8748 19.4252 26.8695C19.5969 26.5712 19.9832 25.8945 20.5573 24.7703C21.2977 23.3212 22.0113 21.5097 22.0113 21.5097C22.0113 21.5097 22.0757 21.9519 22.2957 22.6872C22.4245 23.1187 22.6927 23.5929 22.9074 24.0511C22.7357 24.2908 22.6284 24.424 22.6284 24.424C22.6284 24.424 22.6284 24.424 22.6337 24.4294C22.4942 24.6105 22.344 24.8076 22.1777 24.9994C21.5928 25.6921 20.8953 26.4859 20.7987 26.715C20.6861 26.9867 20.7129 27.1839 20.9275 27.3437C21.0831 27.4609 21.3621 27.4769 21.6465 27.4609C22.1723 27.4236 22.5425 27.2957 22.7249 27.2158C23.0093 27.1146 23.342 26.9601 23.6532 26.731C24.2273 26.3101 24.576 25.708 24.5438 24.9142C24.5277 24.4773 24.3829 24.0404 24.2058 23.6302C24.2595 23.5556 24.3078 23.481 24.3614 23.4064C25.2682 22.0904 25.971 20.6466 25.971 20.6466C25.971 20.6466 26.0354 21.0888 26.2554 21.8241C26.3627 22.197 26.5827 22.6019 26.7759 22.9962C25.9228 23.6835 25.3969 24.4826 25.2091 25.0048C24.8711 25.9744 25.134 26.4113 25.633 26.5125C25.8584 26.5605 26.1803 26.4539 26.4164 26.3527C26.7168 26.2568 27.071 26.0916 27.409 25.8466C27.9831 25.4257 28.5357 24.8396 28.5035 24.0458C28.4874 23.6835 28.3909 23.3265 28.2567 22.9802C28.9811 22.6818 29.9147 22.5167 31.1058 22.6552C33.6597 22.9536 34.1641 24.5359 34.0675 25.2019C33.9709 25.8679 33.4344 26.2302 33.2573 26.3421C33.0803 26.4539 33.0213 26.4912 33.0374 26.5712C33.0588 26.6884 33.1447 26.683 33.2949 26.6617C33.5041 26.6244 34.6363 26.1236 34.6845 24.8982C34.765 23.3318 33.2627 21.6216 30.6068 21.6376ZM10.9048 28.2334C10.0571 29.1498 8.87669 29.4961 8.36697 29.2031C7.8197 28.8888 8.03432 27.5355 9.07522 26.5658C9.70834 25.9744 10.5239 25.4257 11.0658 25.09C11.1892 25.0154 11.3716 24.9089 11.5916 24.7757C11.6292 24.7544 11.6506 24.7437 11.6506 24.7437C11.6936 24.7171 11.7365 24.6904 11.7794 24.6638C12.1604 26.049 11.7955 27.2691 10.9048 28.2334ZM17.0751 24.0671C16.78 24.781 16.163 26.6084 15.7874 26.5072C15.4655 26.422 15.267 25.0367 15.723 23.6675C15.9537 22.9802 16.442 22.1597 16.7264 21.84C17.1878 21.3286 17.6975 21.1581 17.8209 21.3659C17.9765 21.6376 17.2575 23.6195 17.0751 24.0671ZM22.1669 26.4859C22.0435 26.5498 21.9255 26.5925 21.8718 26.5605C21.8343 26.5392 21.9255 26.4539 21.9255 26.4539C21.9255 26.4539 22.564 25.772 22.8162 25.463C22.961 25.2818 23.1327 25.0687 23.3151 24.829C23.3151 24.8503 23.3151 24.8769 23.3151 24.8982C23.3151 25.7134 22.5211 26.2621 22.1669 26.4859ZM26.0944 25.5962C26.0032 25.5322 26.0193 25.3191 26.3252 24.6531C26.4432 24.3921 26.7222 23.9552 27.1997 23.5343C27.2534 23.7048 27.2909 23.8699 27.2856 24.0244C27.2802 25.0527 26.5398 25.4363 26.0944 25.5962Z" fill="#FCFCFC"/>
</svg>
